
nColumns=19
nRows=43
DataType=double
version=3
OpenSimVersion=4.4-2022-10-11-798caa840
endheader
time	ground_force_calcn_r_vx	ground_force_calcn_r_vy	ground_force_calcn_r_vz	ground_force_calcn_r_px	ground_force_calcn_r_py	ground_force_calcn_r_pz	ground_force_calcn_r_mx	ground_force_calcn_r_my	ground_force_calcn_r_mz	ground_force_calcn_l_vx	ground_force_calcn_l_vy	ground_force_calcn_l_vz	ground_force_calcn_l_px	ground_force_calcn_l_py	ground_force_calcn_l_pz	ground_force_calcn_l_mx	ground_force_calcn_l_my	ground_force_calcn_l_mz
1.4	-51.151	68.4033	-17.4887	-0.0307142	0	-0.37738	-0.184551	0.246797	-0.0630988	0	0	0	0	0	0	0	0	0
1.41	-345.292	530.005	-98.3369	-0.0491051	0	-0.381236	-0.955318	1.46636	-0.272068	0	0	0	0	0	0	0	0	0
1.42	-479.38	972.184	-148.883	-0.0581442	0	-0.385793	-2.1554	4.37116	-0.669413	-63.3356	106.817	21.0362	-0.0985798	0	-0.736161	0.45569	-0.768533	-0.151352
1.43	-170.273	1018.03	-81.509	-0.071877	0	-0.389127	-0.831233	4.96977	-0.397908	-243.987	471.781	49.0762	-0.114807	0	-0.7421219999999999	0.964823	-1.86561	-0.194067
1.44	-158.37	1254.58	-79.7405	-0.0952086	0	-0.395497	0.0114214	-0.0904787	0.00575077	-191.363	589.588	65.5671	-0.12373	0	-0.740307	1.16754	-3.59717	-0.400036
1.45	-285.218	1688.2	-65.9847	-0.127192	0	-0.407911	1.5805	-9.35497	0.365647	-2.21257	602.213	41.1555	-0.141693	0	-0.734689	0.00649678	-1.76828	-0.120845
1.46	-308.854	1846.87	8.319509999999999	-0.14346	0	-0.416786	2.77709	-16.6063	-0.0748057	-7.7207	713.52	21.1179	-0.155543	0	-0.729093	-0.0290996	2.68928	0.0795942
1.47	-341.414	1547.32	-5.6673	-0.135512	0	-0.41447	3.73573	-16.9307	0.0620112	-125.472	836.681	13.631	-0.15977	0	-0.7261570000000001	-1.21881	8.12738	0.132409
1.48	-369.625	1215.58	-86.7841	-0.115357	0	-0.404094	3.37566	-11.1015	0.7925720000000001	-202.521	851.521	-5.01345	-0.152227	0	-0.7235470000000001	-2.53567	10.6615	-0.0627709
1.49	-334.845	1066.2	-135.72	-0.102473	0	-0.396481	1.58418	-5.04428	0.642104	-234.06	805.6369999999999	-8.69022	-0.137013	0	-0.721959	-2.88183	9.919309999999999	-0.106997
1.5	-283.577	1031.91	-144.085	-0.100539	0	-0.394342	0.568815	-2.06986	0.289013	-236.594	789.6079999999999	10.9936	-0.126273	0	-0.721305	-1.99358	6.65338	0.0926343
1.51	-253.272	1031.68	-116.562	-0.101642	0	-0.395669	0.737216	-3.00298	0.339284	-218.002	793.798	40.4121	-0.121511	0	-0.721467	-0.708322	2.57917	0.131305
1.52	-234.458	1056.35	-72.12649999999999	-0.104758	0	-0.399555	1.37437	-6.19223	0.422799	-180.552	781.852	50.3523	-0.118681	0	-0.720957	0.09844020000000001	-0.426279	-0.0274529
1.53	-194.921	1094.71	-31.9918	-0.111869	0	-0.404733	1.51648	-8.51685	0.248896	-147.473	760.027	54.025	-0.116045	0	-0.72022	0.372142	-1.91789	-0.13633
1.54	-136.32	1113.64	-13.4032	-0.120246	0	-0.408696	1.00419	-8.203580000000001	0.0987345	-144.514	754.624	55.7392	-0.113309	0	-0.719228	0.424336	-2.2158	-0.163667
1.55	-88.1523	1074.14	-16.5308	-0.124366	0	-0.409585	0.496958	-6.05543	0.093192	-152.798	769.395	54.4564	-0.111846	0	-0.71819	0.365892	-1.8424	-0.130402
1.56	-69.85850000000001	988.828	-28.5766	-0.122422	0	-0.407954	0.261971	-3.70812	0.107163	-136.815	789.957	51.908	-0.11272	0	-0.71758	0.190912	-1.1023	-0.0724322
1.57	-65.45269999999999	911.668	-40.5776	-0.118272	0	-0.40567	0.129646	-1.80579	0.0803744	-102.071	811.173	47.9263	-0.114982	0	-0.717123	0.0458203	-0.364142	-0.0215145
1.58	-55.3694	871.787	-51.0242	-0.116174	0	-0.404086	0.0105538	-0.166169	0.009725620000000001	-68.06140000000001	826.8150000000001	42.0593	-0.116819	0	-0.716421	-0.00562501	0.06833309999999999	0.00347604
1.59	-36.7202	865.05	-56.8864	-0.11683	0	-0.403573	-0.0556489	1.31097	-0.08621040000000001	-44.4719	825.611	35.5275	-0.117342	0	-0.715758	-0.00682748	0.126751	0.0054543
1.6	-16.6443	868.954	-54.1201	-0.117575	0	-0.403584	-0.0460814	2.40579	-0.149837	-31.5928	803.171	31.9874	-0.116485	0	-0.715334	0.008269459999999999	-0.210231	-0.00837275
1.61	-7.82451	864.215	-46.3539	-0.11597	0	-0.403503	-0.0284496	3.14225	-0.168541	-25.179	764.644	32.9117	-0.114706	0	-0.715333	0.0279049	-0.847425	-0.0364748
1.62	-12.1348	857.457	-40.4006	-0.113102	0	-0.403438	-0.0504791	3.56692	-0.168062	-18.9151	714.8869999999999	35.0748	-0.112564	0	-0.715533	0.039319	-1.48604	-0.0729103
1.63	-18.9979	868.15	-37.7699	-0.111795	0	-0.403732	-0.0829713	3.79156	-0.164956	-13.93	661.812	35.9447	-0.110254	0	-0.71573	0.0376607	-1.78925	-0.097179
1.64	-20.4986	900.938	-36.002	-0.112991	0	-0.404335	-0.0874047	3.84154	-0.15351	-15.3367	619.395	36.2907	-0.108155	0	-0.716005	0.0436265	-1.76192	-0.103232
1.65	-16.8758	944.133	-35.3768	-0.11534	0	-0.404927	-0.0676409	3.78423	-0.141796	-19.1421	600.015	37.0994	-0.10712	0	-0.716367	0.0468429	-1.46831	-0.09078650000000001
1.66	-10.5599	990.713	-36.2426	-0.117902	0	-0.405387	-0.0401302	3.76494	-0.13773	-21.0997	612.917	38.9338	-0.108144	0	-0.7171149999999999	0.0327555	-0.9515	-0.0604413
1.67	-2.23807	1039.61	-36.3047	-0.120761	0	-0.405893	-0.00779892	3.62268	-0.126509	-20.3208	657.172	42.1308	-0.111236	0	-0.718197	0.00774866	-0.25059	-0.0160652
1.68	6.19081	1086.24	-33.4725	-0.123701	0	-0.406552	0.0182827	3.20788	-0.0988511	-13.0506	718.0940000000001	44.3924	-0.11546	0	-0.719096	-0.0125619	0.691204	0.0427301
1.69	13.5815	1124.96	-27.9478	-0.126239	0	-0.40717	0.0302695	2.50724	-0.0622883	-0.853622	784.408	43.2026	-0.119889	0	-0.719418	-0.00229996	2.11347	0.116403
1.7	18.7828	1151.91	-22.1159	-0.127818	0	-0.407477	0.0280862	1.72248	-0.0330703	11.7933	848.023	36.7443	-0.123515	0	-0.718932	0.0574507	4.13112	0.178999
1.71	21.7872	1166.83	-18.7522	-0.127704	0	-0.40716	0.0201616	1.07976	-0.017353	17.3378	901.76	26.4729	-0.125332	0	-0.717619	0.125905	6.54846	0.192242
1.72	18.1669	1169.9	-20.091	-0.12514	0	-0.406226	0.00976406	0.628781	-0.0107982	13.2207	938.003	17.0839	-0.12507	0	-0.715917	0.12322	8.74241	0.159226
1.73	7.65498	1164.72	-23.5238	-0.120802	0	-0.405004	0.00156042	0.23742	-0.00479518	5.88676	948.384	12.394	-0.123477	0	-0.714299	0.0617469	9.94769	0.130001
1.74	-0.851136	1157.5	-23.546	-0.116328	0	-0.404058	0.000295848	-0.402338	0.0081844	-0.693401	936.7430000000001	15.873	-0.121395	0	-0.713044	-0.00727007	9.82142	0.166423
1.75	-5.31178	1149.26	-21.5396	-0.112414	0	-0.403391	0.00543176	-1.17522	0.0220261	-6.7285	917.991	26.9311	-0.119443	0	-0.712321	-0.0637646	8.69961	0.25522
1.76	-7.19495	1133.53	-20.2688	-0.108779	0	-0.402716	0.0121156	-1.90875	0.0341307	-10.8825	904.1079999999999	39.7674	-0.117791	0	-0.711833	-0.0881198	7.3209	0.322012
1.77	-9.67301	1109.66	-19.9959	-0.105137	0	-0.402058	0.022985	-2.63678	0.0475142	-12.1561	902.829	48.7105	-0.116516	0	-0.711107	-0.0875358	6.50126	0.350764
1.78	-13.6767	1082.49	-19.5694	-0.101401	0	-0.401633	0.0423078	-3.34861	0.0605366	-10.0072	916.01	53.1476	-0.115524	0	-0.710325	-0.0680962	6.23318	0.361654
1.79	-17.3155	1058.86	-18.9779	-0.0976588	0	-0.401509	0.0642886	-3.9313	0.07046090000000001	-5.28623	934.424	57.1054	-0.114585	0	-0.709682	-0.0339139	5.99481	0.366361
1.8	-21.3272	1041.47	-18.8986	-0.0936612	0	-0.401631	0.0888902	-4.34077	0.0787679	0.09128890000000001	949.579	62.5801	-0.11334	0	-0.7090340000000001	0.0005351140000000001	5.56621	0.36683
1.81	-27.8639	1028.04	-19.68	-0.0890456	0	-0.401876	0.123534	-4.5578	0.0872506	1.93402	958.431	68.7851	-0.111629	0	-0.7084009999999999	0.00996231	4.93697	0.354319
1.82	-36.8544	1016.87	-21.1745	-0.0840834	0	-0.402183	0.163674	-4.51605	0.09403830000000001	-0.186297	958.265	74.6769	-0.109569	0	-0.7077830000000001	-0.000820816	4.22208	0.329024
